# xmcd
#
# Track frame offsets:
#	150
#	19765
#	34579
#	50979
#	69531
#	99161
#	111659
#	136907
#	165135
#	175897
#	189779
#	212313
#	236430
#	244891
#	268062
#
# Disc length: 4438 seconds
#
# Revision: 0
# Processed by: cddbd v1.5.1PL0 Copyright (c) Steve Scherf et al.
# Submitted via: audiograbber 1.83.01
#
DISCID=c511540f
DTITLE=Where's Kitty? - where's kitty?
DYEAR=2003
DGENRE=electronica
TTITLE0=touched
TTITLE1=tuniah
TTITLE2=funx
TTITLE3=excommunication
TTITLE4=bin aural implant
TTITLE5=dance till you die
TTITLE6=synthetic aura
TTITLE7=infinitrate
TTITLE8=struggle
TTITLE9=sick of you
TTITLE10=ambush from the ant rodeo
TTITLE11=quirzk
TTITLE12=fractured
TTITLE13=phoenix
TTITLE14=the crawl
EXTD=
EXTT0=
EXTT1=
EXTT2=
EXTT3=
EXTT4=
EXTT5=
EXTT6=
EXTT7=
EXTT8=
EXTT9=
EXTT10=
EXTT11=
EXTT12=
EXTT13=
EXTT14=
PLAYORDER=
